<svg width="228" height="121" viewBox="0 0 228 121" fill="none" xmlns="http://www.w3.org/2000/svg">
<path d="M68 76.8106L44.2717 96V61.7445L0 42.2379L24.3653 24L68 42.2379V76.8106Z" fill="#EF4035"/>
<path d="M0 75.5418V46.3612L25.4801 57.4626L0 75.5418Z" fill="#EF4035"/>
<path d="M119.852 74.3691V85.0137C119.852 89.3105 116.808 92.6634 110.721 95.0723C107.433 96.3418 103.722 96.9766 99.5879 96.9766C95.4538 96.9766 91.7428 96.3418 88.4551 95.0723C82.3678 92.6634 79.3242 89.3105 79.3242 85.0137V53.2754C79.3242 48.9785 82.3678 45.6257 88.4551 43.2168C91.7428 41.9473 95.4538 41.3125 99.5879 41.3125C103.722 41.3125 107.433 41.9473 110.721 43.2168C116.808 45.6257 119.852 48.9785 119.852 53.2754V59.5254L89.0898 83.3047C89.0898 84.9323 90.099 86.153 92.1172 86.9668C94.168 87.7806 96.6582 88.1875 99.5879 88.1875C102.518 88.1875 104.992 87.7806 107.01 86.9668C109.061 86.153 110.086 84.9323 110.086 83.3047V78.7637L119.363 74.3691H119.852ZM89.0898 73.002L110.086 56.1074V54.9844C110.086 53.3568 109.061 52.1361 107.01 51.3223C104.992 50.5085 102.518 50.1016 99.5879 50.1016C96.6582 50.1016 94.168 50.5085 92.1172 51.3223C90.099 52.1361 89.0898 53.3568 89.0898 54.9844V73.002ZM128.035 78.7637L137.312 74.3691H137.801V83.3047C137.801 84.9323 138.81 86.153 140.828 86.9668C142.879 87.7806 145.369 88.1875 148.299 88.1875C151.326 88.1875 153.816 87.7806 155.77 86.9668C157.788 86.1204 158.797 84.8997 158.797 83.3047V75.6875C158.797 74.0924 157.755 72.8717 155.672 72.0254C153.654 71.2116 151.18 70.8047 148.25 70.8047C145.027 70.8047 141.821 70.1699 138.631 68.9004C132.934 66.5892 130.086 63.2363 130.086 58.8418V53.2754C130.086 49.1087 132.788 45.8535 138.191 43.5098C141.544 42.0449 144.913 41.3125 148.299 41.3125C151.521 41.3125 154.305 41.8008 156.648 42.7773C162.28 45.1862 165.096 48.6855 165.096 53.2754L155.818 57.6699H155.33V54.9844C155.33 53.0964 154.663 51.8105 153.328 51.127C151.993 50.4434 150.317 50.1016 148.299 50.1016C145.499 50.1016 143.383 50.5085 141.951 51.3223C140.551 52.1361 139.852 53.3568 139.852 54.9844V57.1328C139.852 58.7604 140.519 59.9811 141.854 60.7949C143.188 61.6087 145.32 62.0156 148.25 62.0156C152.384 62.0156 156.095 62.6504 159.383 63.9199C165.503 66.2637 168.562 69.6165 168.562 73.9785V85.0137C168.562 89.3431 165.519 92.696 159.432 95.0723C156.144 96.3418 152.433 96.9766 148.299 96.9766C144.165 96.9766 140.454 96.3418 137.166 95.0723C131.079 92.6634 128.035 89.3105 128.035 85.0137V78.7637ZM179.188 97.9531V24.7109L188.465 20.3164H188.953V60.9902L209.363 40.3359H209.852L218.445 44.3887L202.088 59.4277C205.18 59.6556 208.012 60.2578 210.584 61.2344C216.671 63.5456 219.715 66.8984 219.715 71.293V93.5586L210.438 97.9531H209.949V73.002C209.949 71.3743 208.924 70.1536 206.873 69.3398C204.855 68.526 202.381 68.1191 199.451 68.1191C196.521 68.1191 194.031 68.526 191.98 69.3398C189.962 70.1536 188.953 71.3743 188.953 73.002V93.5586L179.676 97.9531H179.188Z" fill="#EF4035"/>
</svg>
